<svg height="512pt" viewBox="-83 0 512 512.002" width="512pt" xmlns="http://www.w3.org/2000/svg"><path d="m123.515625 130.96875h99.398437c4.144532 0 7.5-3.359375 7.5-7.5v-33.132812c0-4.144532-3.355468-7.5-7.5-7.5h-99.398437c-4.144531 0-7.5 3.355468-7.5 7.5v33.132812c0 4.140625 3.355469 7.5 7.5 7.5zm7.5-33.132812h84.398437v18.132812h-84.398437zm0 0"/><path d="m322.265625 309.203125c13.324219 0 24.164063-10.839844 24.164063-24.164063 0-13.320312-10.839844-24.160156-24.164063-24.160156h-.734375v-71.832031h.734375c13.324219 0 24.164063-10.839844 24.164063-24.160156 0-11.421875-7.964844-21.007813-18.628907-23.519531 1.292969-2.945313 2.011719-6.199219 2.011719-9.617188v-49.699219c0-13.269531-10.792969-24.066406-24.066406-24.066406h-100.179688v-9.851563h9.066406c4.140626 0 7.5-3.355468 7.5-7.5 0-4.140624-3.359374-7.5-7.5-7.5h-.78125v-25.632812c0-4.140625-3.359374-7.5-7.5-7.5h-66.269531c-4.140625 0-7.5 3.359375-7.5 7.5v25.636719h-.78125c-4.144531 0-7.5 3.355469-7.5 7.5 0 4.140625 3.355469 7.5 7.5 7.5h9.066407v9.847656h-100.183594c-13.269532 0-24.066406 10.796875-24.066406 24.066406v49.699219c0 3.421875.722656 6.671875 2.011718 9.617188-10.664062 2.511718-18.628906 12.101562-18.628906 23.519531 0 13.324219 10.839844 24.164062 24.164062 24.164062h.734376v19.863281c0 4.144532 3.359374 7.5 7.5 7.5 4.144531 0 7.5-3.355468 7.5-7.5v-19.863281h266.632812v71.828125h-266.632812v-20.964844c0-4.140624-3.355469-7.5-7.5-7.5-4.140626 0-7.5 3.359376-7.5 7.5v20.964844h-.734376c-13.324218 0-24.164062 10.839844-24.164062 24.164063s10.839844 24.164062 24.164062 24.164062h.734376v71.726563h-.734376c-13.324218 0-24.164062 10.839844-24.164062 24.164062 0 11.417969 7.964844 21.007813 18.632812 23.515625-1.292968 2.949219-2.015624 6.203125-2.015624 9.625v49.699219c0 13.269531 10.796874 24.066406 24.066406 24.066406h265.0625c13.273437 0 24.066406-10.796875 24.066406-24.066406v-49.699219c0-3.421875-.71875-6.675781-2.011719-9.625 10.664063-2.507812 18.628907-12.097656 18.628907-23.515625 0-13.324218-10.839844-24.164062-24.164063-24.164062h-.734375v-71.726563h.734375zm-174.683594-294.203125h51.269531v18.136719h-51.269531zm8.285157 33.136719h34.699218v9.847656h-34.699218zm-124.25 33.914062c0-5 4.066406-9.066406 9.066406-9.066406h265.0625c5 0 9.066406 4.066406 9.066406 9.066406v49.699219c0 4.578125-3.414062 8.363281-7.828125 8.972656h-10.304687v-17.253906c0-4.140625-3.359376-7.5-7.5-7.5h-33.132813c-4.144531 0-7.5 3.359375-7.5 7.5v17.253906h-150.664063v-17.253906c0-4.140625-3.359374-7.5-7.5-7.5h-33.132812c-4.144531 0-7.5 3.359375-7.5 7.5v17.253906h-10.304688c-4.414062-.609375-7.828124-4.394531-7.828124-8.972656zm51.265624 58.671875h-18.132812v-9.753906h18.132812zm198.796876 0h-18.132813v-9.753906h18.132813zm-266.679688 24.164063c0-5.054688 4.113281-9.164063 9.164062-9.164063h14.453126c.683593.054688 1.371093.09375 2.066406.09375h16.515625.050781.046875 198.699219.050781.046875 49.652344c.695312 0 1.386718-.035156 2.066406-.09375h14.449219c5.054687 0 9.164062 4.109375 9.164062 9.164063 0 5.050781-4.109375 9.160156-9.164062 9.160156h-7.078125c-.378906-.058594-.761719-.097656-1.15625-.097656-.390625 0-.773438.039062-1.152344.097656h-279.320312c-.378907-.058594-.761719-.097656-1.15625-.097656-.390626 0-.773438.039062-1.152344.097656h-7.082032c-5.050781 0-9.164062-4.109375-9.164062-9.160156zm0 120.152343c0-5.050781 4.113281-9.160156 9.164062-9.160156h298.101563c5.050781 0 9.164063 4.109375 9.164063 9.160156 0 5.054688-4.113282 9.164063-9.164063 9.164063h-298.101563c-5.050781 0-9.164062-4.109375-9.164062-9.164063zm299.8125 202.894532c0 5-4.066406 9.066406-9.066406 9.066406h-265.0625c-5 0-9.066406-4.066406-9.066406-9.066406v-49.699219c0-4.585937 3.425781-8.378906 7.851562-8.972656h10.28125v17.253906c0 4.140625 3.355469 7.5 7.5 7.5h33.132812c4.140626 0 7.5-3.359375 7.5-7.5v-17.253906h150.664063v17.253906c0 4.140625 3.359375 7.5 7.5 7.5h33.132813c4.144531 0 7.5-3.359375 7.5-7.5v-17.253906h10.28125c4.425781.59375 7.851562 4.386719 7.851562 8.972656zm-51.265625-58.671875h18.136719v9.753906h-18.136719zm-198.796875 0h18.132812v9.753906h-18.132812zm266.679688-24.164063c0 5.050782-4.113282 9.164063-9.164063 9.164063h-14.5c-.667969-.058594-1.335937-.089844-2.019531-.089844h-16.515625c-.015625 0-.03125-.003906-.046875-.003906s-.03125.003906-.046875.003906h-198.703125c-.019532 0-.035156-.003906-.050782-.003906-.015624 0-.03125.003906-.046874.003906h-49.652344c-.679688 0-1.347656.03125-2.015625.089844h-14.503907c-5.050781 0-9.164062-4.113281-9.164062-9.164063 0-5.054687 4.113281-9.164062 9.164062-9.164062h7.046876c.390624.0625.785156.101562 1.1875.101562.40625 0 .800781-.039062 1.191406-.101562h279.253906c.386719.0625.78125.101562 1.1875.101562s.800781-.039062 1.1875-.101562h7.046875c5.050781 0 9.164063 4.109375 9.164063 9.164062zm-24.898438-24.164062h-266.632812v-71.730469h266.632812zm0 0"/></svg>