<?xml version="1.0" encoding="iso-8859-1"?>
<!-- Generator: Adobe Illustrator 19.0.0, SVG Export Plug-In . SVG Version: 6.00 Build 0)  -->
<svg version="1.1" id="Capa_1" xmlns="http://www.w3.org/2000/svg" xmlns:xlink="http://www.w3.org/1999/xlink" x="0px" y="0px"
	 viewBox="0 0 512 512" style="enable-background:new 0 0 512 512;" xml:space="preserve">
<g>
	<g>
		<path d="M330.072,219.641C327.413,214.921,322.417,212,317,212h-76v-75c0-6.742-4.498-12.656-10.996-14.456
			c-6.497-1.798-13.396,0.957-16.866,6.738l-90,150c-2.78,4.634-2.854,10.406-0.19,15.108c2.662,4.703,7.648,7.61,13.053,7.61h75v75
			c0,6.729,4.48,12.634,10.961,14.446c1.34,0.375,2.697,0.556,4.039,0.555c5.146,0,10.057-2.658,12.824-7.221l91-150
			C332.636,230.148,332.729,224.362,330.072,219.641z M241,323.355V287c0-8.284-6.716-15-15-15h-63.507L211,191.155V227
			c0,8.284,6.716,15,15,15h64.355L241,323.355z"/>
	</g>
</g>
<g>
	<g>
		<path d="M464.178,304.603c-17.463-24.282-34.707-44.655-42.178-53.258V87.42c17.459-6.192,30-22.865,30-42.42
			c0-24.813-20.187-45-45-45H45C20.187,0,0,20.187,0,45c0,19.555,12.541,36.228,30,42.42v337.16C12.541,430.772,0,447.445,0,467
			c0,24.813,20.187,45,45,45h354.917c0.637,0,1.26-0.053,1.876-0.13c1.725,0.085,3.461,0.13,5.207,0.13c57.897,0,105-47.103,105-105
			C512,382.843,496.357,349.349,464.178,304.603z M45,30h362c8.271,0,15,6.729,15,15s-6.729,15-15,15H45c-8.271,0-15-6.729-15-15
			S36.729,30,45,30z M347,182h45v69.345c-7.471,8.603-24.715,28.975-42.178,53.258C317.643,349.349,302,382.843,302,407
			c0,5.093,0.372,10.099,1.076,15H60v-60h45c8.284,0,15-6.716,15-15s-6.716-15-15-15H60V182h45c8.284,0,15-6.716,15-15
			s-6.716-15-15-15H60V90h332v62h-45c-8.284,0-15,6.716-15,15S338.716,182,347,182z M45,482c-8.271,0-15-6.729-15-15s6.729-15,15-15
			h267.145c5.355,11.242,12.651,21.385,21.451,30H45z M407,482c-41.355,0-75-33.645-75-75c0-28.598,42.245-88.26,75.003-127.126
			C439.761,318.723,482,378.369,482,407C482,448.355,448.355,482,407,482z"/>
	</g>
</g>
<g>
</g>
<g>
</g>
<g>
</g>
<g>
</g>
<g>
</g>
<g>
</g>
<g>
</g>
<g>
</g>
<g>
</g>
<g>
</g>
<g>
</g>
<g>
</g>
<g>
</g>
<g>
</g>
<g>
</g>
</svg>
