<svg height="512pt" viewBox="0 0 512 512" width="512pt" xmlns="http://www.w3.org/2000/svg"><path d="m440 8h-368c-35.347656 0-64 28.652344-64 64v368c0 35.347656 28.652344 64 64 64h368c35.347656 0 64-28.652344 64-64v-368c0-35.347656-28.652344-64-64-64zm-232 440v-192h-96l192-192v192h96zm0 0" fill="#57a4ff"/><g fill="#004fac"><path d="m440 512h-368c-39.746094-.042969-71.9570312-32.253906-72-72v-368c.0429688-39.746094 32.253906-71.9570312 72-72h368c39.746094.0429688 71.957031 32.253906 72 72v368c-.042969 39.746094-32.253906 71.957031-72 72zm-368-496c-30.914062.035156-55.964844 25.085938-56 56v368c.035156 30.914062 25.085938 55.964844 56 56h368c30.914062-.035156 55.964844-25.085938 56-56v-368c-.035156-30.914062-25.085938-55.964844-56-56zm0 0"/><path d="m208 456c-1.050781.003906-2.09375-.203125-3.0625-.609375-2.988281-1.238281-4.9375-4.15625-4.9375-7.390625v-184h-88c-3.234375 0-6.152344-1.949219-7.390625-4.9375s-.550781-6.429688 1.734375-8.71875l192-192c2.289062-2.285156 5.730469-2.972656 8.71875-1.734375s4.9375 4.15625 4.9375 7.390625v184h88c3.234375 0 6.152344 1.949219 7.390625 4.9375s.550781 6.429688-1.734375 8.71875l-62.558594 62.558594c-3.140625 3.03125-8.128906 2.988281-11.214844-.097656-3.085937-3.085938-3.128906-8.074219-.097656-11.214844l48.902344-48.902344h-76.6875c-4.417969 0-8-3.582031-8-8v-172.6875l-164.6875 164.6875h76.6875c4.417969 0 8 3.582031 8 8v172.6875l90.34375-90.34375c3.140625-3.03125 8.128906-2.988281 11.214844.097656 3.085937 3.085938 3.128906 8.074219.097656 11.214844l-104 104c-1.5 1.5-3.535156 2.34375-5.65625 2.34375zm0 0"/></g></svg>