<svg height="512pt" viewBox="0 0 511 512" width="512pt" xmlns="http://www.w3.org/2000/svg"><path d="m226.722656 312.027344c0 33.082031 26.914063 59.992187 59.992188 59.992187s59.992187-26.910156 59.992187-59.992187c0-33.078125-26.914062-59.992188-59.992187-59.992188s-59.992188 26.914063-59.992188 59.992188zm79.988282 0c0 11.027344-8.96875 19.996094-19.996094 19.996094s-19.996094-8.96875-19.996094-19.996094 8.96875-19.996094 19.996094-19.996094 19.996094 8.96875 19.996094 19.996094zm144.980468 79.988281c-33.078125 0-59.992187 26.914063-59.992187 59.992187 0 33.078126 26.914062 59.992188 59.992187 59.992188s59.992188-26.914062 59.992188-59.992188c0-33.078124-26.914063-59.992187-59.992188-59.992187zm0 79.988281c-11.027344 0-19.996094-8.96875-19.996094-19.996094 0-11.027343 8.96875-19.996093 19.996094-19.996093s19.996094 8.96875 19.996094 19.996093c0 11.027344-8.96875 19.996094-19.996094 19.996094zm11-221.96875-140.980468 261.964844h-45.464844l140.980468-261.964844zm-210.339844 221.96875-21.523437 39.996094h-120.089844c-33.078125 0-59.992187-26.914062-59.992187-59.992188v-209.96875l-23.289063 21.25-26.957031-29.546874 256.21875-233.742188 230.238281 210.042969h-59.34375l-170.894531-155.90625-165.976562 151.417969v246.453124c0 11.027344 8.972656 20 19.996093 20h141.613281zm0 0"/></svg>